{
    "asset" : {
        "generator" : "Khronos glTF Blender I/O v1.0.5",
        "version" : "2.0"
    },
    "scene" : 0,
    "scenes" : [
        {
            "name" : "Scene",
            "nodes" : [
                0
            ]
        }
    ],
    "nodes" : [
        {
            "mesh" : 0,
            "name" : "male_kid_shoes",
            "rotation" : [
                0.7071068286895752,
                0,
                0,
                0.7071067094802856
            ]
        }
    ],
    "materials" : [
        {
            "doubleSided" : true,
            "name" : "Material3796",
            "pbrMetallicRoughness" : {
                "baseColorTexture" : {
                    "index" : 0,
                    "texCoord" : 0
                },
                "metallicFactor" : 0,
                "roughnessFactor" : 0.9206975102424622
            }
        }
    ],
    "meshes" : [
        {
            "name" : "male_kid_shoes",
            "primitives" : [
                {
                    "attributes" : {
                        "POSITION" : 0,
                        "NORMAL" : 1,
                        "TEXCOORD_0" : 2
                    },
                    "indices" : 3,
                    "material" : 0
                }
            ]
        }
    ],
    "textures" : [
        {
            "source" : 0
        }
    ],
    "images" : [
        {
            "bufferView" : 4,
            "mimeType" : "image/jpeg",
            "name" : "Female_Sneaker_01"
        }
    ],
    "accessors" : [
        {
            "bufferView" : 0,
            "componentType" : 5126,
            "count" : 11918,
            "max" : [
                16.257505416870117,
                9.569902420043945,
                0.728393018245697
            ],
            "min" : [
                -16.25751304626465,
                -13.199966430664062,
                -9.981330871582031
            ],
            "type" : "VEC3"
        },
        {
            "bufferView" : 1,
            "componentType" : 5126,
            "count" : 11918,
            "type" : "VEC3"
        },
        {
            "bufferView" : 2,
            "componentType" : 5126,
            "count" : 11918,
            "type" : "VEC2"
        },
        {
            "bufferView" : 3,
            "componentType" : 5123,
            "count" : 57930,
            "type" : "SCALAR"
        }
    ],
    "bufferViews" : [
        {
            "buffer" : 0,
            "byteLength" : 143016,
            "byteOffset" : 0
        },
        {
            "buffer" : 0,
            "byteLength" : 143016,
            "byteOffset" : 143016
        },
        {
            "buffer" : 0,
            "byteLength" : 95344,
            "byteOffset" : 286032
        },
        {
            "buffer" : 0,
            "byteLength" : 115860,
            "byteOffset" : 381376
        },
        {
            "buffer" : 0,
            "byteLength" : 406349,
            "byteOffset" : 497236
        }
    ],
    "buffers" : [
        {
            "byteLength" : 903588,
            "uri" : "data:application/octet-stream;base64,"
        }
    ]
}
