{
    "asset" : {
        "generator" : "Khronos glTF Blender I/O v1.0.5",
        "version" : "2.0"
    },
    "scene" : 0,
    "scenes" : [
        {
            "name" : "Scene",
            "nodes" : [
                0
            ]
        }
    ],
    "nodes" : [
        {
            "mesh" : 0,
            "name" : "shoes",
            "rotation" : [
                0.7071068286895752,
                0,
                0,
                0.7071067094802856
            ]
        }
    ],
    "materials" : [
        {
            "doubleSided" : true,
            "name" : "man_sports_shoes_shoes",
            "pbrMetallicRoughness" : {
                "baseColorTexture" : {
                    "index" : 0,
                    "texCoord" : 0
                },
                "metallicFactor" : 0,
                "roughnessFactor" : 0.925464391708374
            }
        }
    ],
    "meshes" : [
        {
            "name" : "shoes",
            "primitives" : [
                {
                    "attributes" : {
                        "POSITION" : 0,
                        "NORMAL" : 1,
                        "TEXCOORD_0" : 2
                    },
                    "indices" : 3,
                    "material" : 0
                }
            ]
        }
    ],
    "textures" : [
        {
            "source" : 0
        }
    ],
    "images" : [
        {
            "bufferView" : 4,
            "mimeType" : "image/jpeg",
            "name" : "running_shoes_c_4952"
        }
    ],
    "accessors" : [
        {
            "bufferView" : 0,
            "componentType" : 5126,
            "count" : 9224,
            "max" : [
                24.693021774291992,
                21.586944580078125,
                0.4394420087337494
            ],
            "min" : [
                -24.693098068237305,
                -9.550620079040527,
                -12.685930252075195
            ],
            "type" : "VEC3"
        },
        {
            "bufferView" : 1,
            "componentType" : 5126,
            "count" : 9224,
            "type" : "VEC3"
        },
        {
            "bufferView" : 2,
            "componentType" : 5126,
            "count" : 9224,
            "type" : "VEC2"
        },
        {
            "bufferView" : 3,
            "componentType" : 5123,
            "count" : 36666,
            "type" : "SCALAR"
        }
    ],
    "bufferViews" : [
        {
            "buffer" : 0,
            "byteLength" : 110688,
            "byteOffset" : 0
        },
        {
            "buffer" : 0,
            "byteLength" : 110688,
            "byteOffset" : 110688
        },
        {
            "buffer" : 0,
            "byteLength" : 73792,
            "byteOffset" : 221376
        },
        {
            "buffer" : 0,
            "byteLength" : 73332,
            "byteOffset" : 295168
        },
        {
            "buffer" : 0,
            "byteLength" : 94092,
            "byteOffset" : 368500
        }
    ],
    "buffers" : [
        {
            "byteLength" : 462592,
            "uri" : "data:application/octet-stream;base64,"
        }
    ]
}
