{
    "asset" : {
        "generator" : "Khronos glTF Blender I/O v1.0.5",
        "version" : "2.0"
    },
    "scene" : 0,
    "scenes" : [
        {
            "name" : "Scene",
            "nodes" : [
                0
            ]
        }
    ],
    "nodes" : [
        {
            "mesh" : 0,
            "name" : "wEays",
            "rotation" : [
                0.7071068286895752,
                0,
                0,
                0.7071067094802856
            ]
        }
    ],
    "materials" : [
        {
            "doubleSided" : true,
            "name" : "Material31614",
            "pbrMetallicRoughness" : {
                "baseColorFactor" : [
                    0.10559199750423431,
                    0.07719500362873077,
                    0.019332999363541603,
                    1
                ],
                "metallicFactor" : 0,
                "roughnessFactor" : 0.925464391708374
            }
        },
        {
            "doubleSided" : true,
            "name" : "Material31639",
            "pbrMetallicRoughness" : {
                "baseColorTexture" : {
                    "index" : 0,
                    "texCoord" : 0
                },
                "metallicFactor" : 0,
                "roughnessFactor" : 0.6666666865348816
            }
        },
        {
            "doubleSided" : true,
            "name" : "Material31656",
            "pbrMetallicRoughness" : {
                "baseColorTexture" : {
                    "index" : 1,
                    "texCoord" : 0
                },
                "metallicFactor" : 0,
                "roughnessFactor" : 0.6666666865348816
            }
        }
    ],
    "meshes" : [
        {
            "name" : "wEays",
            "primitives" : [
                {
                    "attributes" : {
                        "POSITION" : 0,
                        "NORMAL" : 1,
                        "TEXCOORD_0" : 2
                    },
                    "indices" : 3,
                    "material" : 0
                },
                {
                    "attributes" : {
                        "POSITION" : 4,
                        "NORMAL" : 5,
                        "TEXCOORD_0" : 6
                    },
                    "indices" : 7,
                    "material" : 1
                },
                {
                    "attributes" : {
                        "POSITION" : 8,
                        "NORMAL" : 9,
                        "TEXCOORD_0" : 10
                    },
                    "indices" : 11,
                    "material" : 2
                }
            ]
        }
    ],
    "textures" : [
        {
            "source" : 0
        },
        {
            "source" : 0
        }
    ],
    "images" : [
        {
            "bufferView" : 8,
            "mimeType" : "image/jpeg",
            "name" : "eye_2"
        }
    ],
    "accessors" : [
        {
            "bufferView" : 0,
            "componentType" : 5126,
            "count" : 9014,
            "max" : [
                4.679245948791504,
                11.349130630493164,
                -174.81944274902344
            ],
            "min" : [
                -4.67917013168335,
                9.992049217224121,
                -176.44329833984375
            ],
            "type" : "VEC3"
        },
        {
            "bufferView" : 1,
            "componentType" : 5126,
            "count" : 9014,
            "type" : "VEC3"
        },
        {
            "bufferView" : 2,
            "componentType" : 5126,
            "count" : 9014,
            "type" : "VEC2"
        },
        {
            "bufferView" : 3,
            "componentType" : 5123,
            "count" : 36408,
            "type" : "SCALAR"
        },
        {
            "bufferView" : 4,
            "componentType" : 5126,
            "count" : 764,
            "max" : [
                4.970025062561035,
                10.712407112121582,
                -173.59886169433594
            ],
            "min" : [
                -3.6387619972229004,
                6.379786968231201,
                -177.76388549804688
            ],
            "type" : "VEC3"
        },
        {
            "bufferView" : 5,
            "componentType" : 5126,
            "count" : 764,
            "type" : "VEC3"
        },
        {
            "bufferView" : 6,
            "componentType" : 5126,
            "count" : 764,
            "type" : "VEC2"
        },
        {
            "bufferView" : 7,
            "componentType" : 5123,
            "count" : 4320,
            "type" : "SCALAR"
        },
        {
            "bufferView" : 9,
            "componentType" : 5126,
            "count" : 522,
            "max" : [
                -0.817658007144928,
                10.51505184173584,
                -173.59854125976562
            ],
            "min" : [
                -4.970192909240723,
                6.3797831535339355,
                -177.76356506347656
            ],
            "type" : "VEC3"
        },
        {
            "bufferView" : 10,
            "componentType" : 5126,
            "count" : 522,
            "type" : "VEC3"
        },
        {
            "bufferView" : 11,
            "componentType" : 5126,
            "count" : 522,
            "type" : "VEC2"
        },
        {
            "bufferView" : 12,
            "componentType" : 5123,
            "count" : 3000,
            "type" : "SCALAR"
        }
    ],
    "bufferViews" : [
        {
            "buffer" : 0,
            "byteLength" : 108168,
            "byteOffset" : 0
        },
        {
            "buffer" : 0,
            "byteLength" : 108168,
            "byteOffset" : 108168
        },
        {
            "buffer" : 0,
            "byteLength" : 72112,
            "byteOffset" : 216336
        },
        {
            "buffer" : 0,
            "byteLength" : 72816,
            "byteOffset" : 288448
        },
        {
            "buffer" : 0,
            "byteLength" : 9168,
            "byteOffset" : 361264
        },
        {
            "buffer" : 0,
            "byteLength" : 9168,
            "byteOffset" : 370432
        },
        {
            "buffer" : 0,
            "byteLength" : 6112,
            "byteOffset" : 379600
        },
        {
            "buffer" : 0,
            "byteLength" : 8640,
            "byteOffset" : 385712
        },
        {
            "buffer" : 0,
            "byteLength" : 113646,
            "byteOffset" : 394352
        },
        {
            "buffer" : 0,
            "byteLength" : 6264,
            "byteOffset" : 508000
        },
        {
            "buffer" : 0,
            "byteLength" : 6264,
            "byteOffset" : 514264
        },
        {
            "buffer" : 0,
            "byteLength" : 4176,
            "byteOffset" : 520528
        },
        {
            "buffer" : 0,
            "byteLength" : 6000,
            "byteOffset" : 524704
        }
    ],
    "buffers" : [
        {
            "byteLength" : 530704,
            "uri" : "data:application/octet-stream;base64,"
        }
    ]
}
