{
    "asset" : {
        "generator" : "Khronos glTF Blender I/O v1.0.5",
        "version" : "2.0"
    },
    "scene" : 0,
    "scenes" : [
        {
            "name" : "Scene",
            "nodes" : [
                0
            ]
        }
    ],
    "nodes" : [
        {
            "mesh" : 0,
            "name" : "wHair",
            "rotation" : [
                0.7071068286895752,
                0,
                0,
                0.7071067094802856
            ]
        }
    ],
    "materials" : [
        {
            "doubleSided" : true,
            "name" : "wHair1",
            "pbrMetallicRoughness" : {
                "baseColorTexture" : {
                    "index" : 0,
                    "texCoord" : 0
                },
                "metallicFactor" : 0,
                "roughnessFactor" : 0.850928783416748
            }
        }
    ],
    "meshes" : [
        {
            "name" : "wHair",
            "primitives" : [
                {
                    "attributes" : {
                        "POSITION" : 0,
                        "NORMAL" : 1,
                        "TEXCOORD_0" : 2
                    },
                    "indices" : 3,
                    "material" : 0
                }
            ]
        }
    ],
    "textures" : [
        {
            "source" : 0
        }
    ],
    "images" : [
        {
            "bufferView" : 4,
            "mimeType" : "image/png",
            "name" : "W_Hair-W_Hair.png"
        }
    ],
    "accessors" : [
        {
            "bufferView" : 0,
            "componentType" : 5126,
            "count" : 13209,
            "max" : [
                8.367907524108887,
                12.758349418640137,
                -167.1898651123047
            ],
            "min" : [
                -8.37298583984375,
                -13.566637992858887,
                -188.46115112304688
            ],
            "type" : "VEC3"
        },
        {
            "bufferView" : 1,
            "componentType" : 5126,
            "count" : 13209,
            "type" : "VEC3"
        },
        {
            "bufferView" : 2,
            "componentType" : 5126,
            "count" : 13209,
            "type" : "VEC2"
        },
        {
            "bufferView" : 3,
            "componentType" : 5123,
            "count" : 22797,
            "type" : "SCALAR"
        }
    ],
    "bufferViews" : [
        {
            "buffer" : 0,
            "byteLength" : 158508,
            "byteOffset" : 0
        },
        {
            "buffer" : 0,
            "byteLength" : 158508,
            "byteOffset" : 158508
        },
        {
            "buffer" : 0,
            "byteLength" : 105672,
            "byteOffset" : 317016
        },
        {
            "buffer" : 0,
            "byteLength" : 45594,
            "byteOffset" : 422688
        },
        {
            "buffer" : 0,
            "byteLength" : 426778,
            "byteOffset" : 468284
        }
    ],
    "buffers" : [
        {
            "byteLength" : 895064,
            "uri" : "data:application/octet-stream;base64,"
        }
    ]
}
