{
    "asset" : {
        "generator" : "Khronos glTF Blender I/O v1.0.5",
        "version" : "2.0"
    },
    "scene" : 0,
    "scenes" : [
        {
            "name" : "Scene",
            "nodes" : [
                0
            ]
        }
    ],
    "nodes" : [
        {
            "mesh" : 0,
            "name" : "women-body",
            "rotation" : [
                0.7071068286895752,
                0,
                0,
                0.7071067094802856
            ]
        }
    ],
    "materials" : [
        {
            "doubleSided" : true,
            "name" : "Material31757.001",
            "pbrMetallicRoughness" : {
                "baseColorTexture" : {
                    "index" : 0,
                    "texCoord" : 0
                },
                "metallicFactor" : 0,
                "roughnessFactor" : 0.9118083119392395
            }
        },
        {
            "doubleSided" : true,
            "name" : "Material31762.001",
            "pbrMetallicRoughness" : {
                "baseColorTexture" : {
                    "index" : 1,
                    "texCoord" : 0
                },
                "metallicFactor" : 0,
                "roughnessFactor" : 0.9118083119392395
            }
        },
        {
            "doubleSided" : true,
            "name" : "Material31767.001",
            "pbrMetallicRoughness" : {
                "baseColorTexture" : {
                    "index" : 2,
                    "texCoord" : 0
                },
                "metallicFactor" : 0,
                "roughnessFactor" : 0.9118083119392395
            }
        }
    ],
    "meshes" : [
        {
            "name" : "body.005",
            "primitives" : [
                {
                    "attributes" : {
                        "POSITION" : 0,
                        "NORMAL" : 1,
                        "TEXCOORD_0" : 2
                    },
                    "indices" : 3,
                    "material" : 0
                },
                {
                    "attributes" : {
                        "POSITION" : 4,
                        "NORMAL" : 5,
                        "TEXCOORD_0" : 6
                    },
                    "indices" : 7,
                    "material" : 1
                },
                {
                    "attributes" : {
                        "POSITION" : 8,
                        "NORMAL" : 9,
                        "TEXCOORD_0" : 10
                    },
                    "indices" : 11,
                    "material" : 2
                }
            ]
        }
    ],
    "textures" : [
        {
            "source" : 0
        },
        {
            "source" : 1
        },
        {
            "source" : 2
        }
    ],
    "images" : [
        {
            "bufferView" : 4,
            "mimeType" : "image/jpeg",
            "name" : "W_body_west_lingerie"
        },
        {
            "bufferView" : 9,
            "mimeType" : "image/jpeg",
            "name" : "W_face_west"
        },
        {
            "bufferView" : 14,
            "mimeType" : "image/jpeg",
            "name" : "W_leg_hand_west"
        }
    ],
    "accessors" : [
        {
            "bufferView" : 0,
            "componentType" : 5126,
            "count" : 4815,
            "max" : [
                17.23956871032715,
                13.275839805603027,
                -86.62506866455078
            ],
            "min" : [
                -17.238357543945312,
                -11.860941886901855,
                -166.5240936279297
            ],
            "type" : "VEC3"
        },
        {
            "bufferView" : 1,
            "componentType" : 5126,
            "count" : 4815,
            "type" : "VEC3"
        },
        {
            "bufferView" : 2,
            "componentType" : 5126,
            "count" : 4815,
            "type" : "VEC2"
        },
        {
            "bufferView" : 3,
            "componentType" : 5123,
            "count" : 27636,
            "type" : "SCALAR"
        },
        {
            "bufferView" : 5,
            "componentType" : 5126,
            "count" : 6449,
            "max" : [
                8.659967422485352,
                13.731042861938477,
                -157.830322265625
            ],
            "min" : [
                -8.660400390625,
                -7.413168907165527,
                -187.39688110351562
            ],
            "type" : "VEC3"
        },
        {
            "bufferView" : 6,
            "componentType" : 5126,
            "count" : 6449,
            "type" : "VEC3"
        },
        {
            "bufferView" : 7,
            "componentType" : 5126,
            "count" : 6449,
            "type" : "VEC2"
        },
        {
            "bufferView" : 8,
            "componentType" : 5123,
            "count" : 36780,
            "type" : "SCALAR"
        },
        {
            "bufferView" : 10,
            "componentType" : 5126,
            "count" : 11012,
            "max" : [
                63.46277618408203,
                13.600137710571289,
                -1.5960379838943481
            ],
            "min" : [
                -63.46407699584961,
                -11.490121841430664,
                -156.77101135253906
            ],
            "type" : "VEC3"
        },
        {
            "bufferView" : 11,
            "componentType" : 5126,
            "count" : 11012,
            "type" : "VEC3"
        },
        {
            "bufferView" : 12,
            "componentType" : 5126,
            "count" : 11012,
            "type" : "VEC2"
        },
        {
            "bufferView" : 13,
            "componentType" : 5123,
            "count" : 60984,
            "type" : "SCALAR"
        }
    ],
    "bufferViews" : [
        {
            "buffer" : 0,
            "byteLength" : 57780,
            "byteOffset" : 0
        },
        {
            "buffer" : 0,
            "byteLength" : 57780,
            "byteOffset" : 57780
        },
        {
            "buffer" : 0,
            "byteLength" : 38520,
            "byteOffset" : 115560
        },
        {
            "buffer" : 0,
            "byteLength" : 55272,
            "byteOffset" : 154080
        },
        {
            "buffer" : 0,
            "byteLength" : 568554,
            "byteOffset" : 209352
        },
        {
            "buffer" : 0,
            "byteLength" : 77388,
            "byteOffset" : 777908
        },
        {
            "buffer" : 0,
            "byteLength" : 77388,
            "byteOffset" : 855296
        },
        {
            "buffer" : 0,
            "byteLength" : 51592,
            "byteOffset" : 932684
        },
        {
            "buffer" : 0,
            "byteLength" : 73560,
            "byteOffset" : 984276
        },
        {
            "buffer" : 0,
            "byteLength" : 494539,
            "byteOffset" : 1057836
        },
        {
            "buffer" : 0,
            "byteLength" : 132144,
            "byteOffset" : 1552376
        },
        {
            "buffer" : 0,
            "byteLength" : 132144,
            "byteOffset" : 1684520
        },
        {
            "buffer" : 0,
            "byteLength" : 88096,
            "byteOffset" : 1816664
        },
        {
            "buffer" : 0,
            "byteLength" : 121968,
            "byteOffset" : 1904760
        },
        {
            "buffer" : 0,
            "byteLength" : 270861,
            "byteOffset" : 2026728
        }
    ],
    "buffers" : [
        {
            "byteLength" : 2297592,
            "uri" : "data:application/octet-stream;base64,"
        }
    ]
}
