{
    "asset" : {
        "generator" : "Khronos glTF Blender I/O v1.0.5",
        "version" : "2.0"
    },
    "scene" : 0,
    "scenes" : [
        {
            "name" : "Scene",
            "nodes" : [
                0
            ]
        }
    ],
    "nodes" : [
        {
            "mesh" : 0,
            "name" : "wshirt",
            "rotation" : [
                0.7071068286895752,
                0,
                0,
                0.7071067094802856
            ]
        }
    ],
    "meshes" : [
        {
            "name" : "wshirt",
            "primitives" : [
                {
                    "attributes" : {
                        "POSITION" : 0,
                        "NORMAL" : 1,
                        "TEXCOORD_0" : 2
                    },
                    "indices" : 3
                }
            ]
        }
    ],
    "accessors" : [
        {
            "bufferView" : 0,
            "componentType" : 5126,
            "count" : 14728,
            "max" : [
                54.42218780517578,
                13.699629783630371,
                -103.8816909790039
            ],
            "min" : [
                -54.747920989990234,
                -13.48627758026123,
                -161.1014862060547
            ],
            "type" : "VEC3"
        },
        {
            "bufferView" : 1,
            "componentType" : 5126,
            "count" : 14728,
            "type" : "VEC3"
        },
        {
            "bufferView" : 2,
            "componentType" : 5126,
            "count" : 14728,
            "type" : "VEC2"
        },
        {
            "bufferView" : 3,
            "componentType" : 5123,
            "count" : 84330,
            "type" : "SCALAR"
        }
    ],
    "bufferViews" : [
        {
            "buffer" : 0,
            "byteLength" : 176736,
            "byteOffset" : 0
        },
        {
            "buffer" : 0,
            "byteLength" : 176736,
            "byteOffset" : 176736
        },
        {
            "buffer" : 0,
            "byteLength" : 117824,
            "byteOffset" : 353472
        },
        {
            "buffer" : 0,
            "byteLength" : 168660,
            "byteOffset" : 471296
        }
    ],
    "buffers" : [
        {
            "byteLength" : 639956,
            "uri" : "data:application/octet-stream;base64,"
        }
    ]
}
