{
    "asset" : {
        "generator" : "Khronos glTF Blender I/O v1.0.5",
        "version" : "2.0"
    },
    "scene" : 0,
    "scenes" : [
        {
            "name" : "Scene",
            "nodes" : [
                0
            ]
        }
    ],
    "nodes" : [
        {
            "mesh" : 0,
            "name" : "trouser",
            "rotation" : [
                0.7071068286895752,
                0,
                0,
                0.7071067094802856
            ]
        }
    ],
    "materials" : [
        {
            "doubleSided" : true,
            "name" : "Material5129",
            "pbrMetallicRoughness" : {
                "baseColorTexture" : {
                    "index" : 0,
                    "texCoord" : 0
                },
                "metallicFactor" : 0,
                "roughnessFactor" : 0.925464391708374
            }
        }
    ],
    "meshes" : [
        {
            "name" : "trouser",
            "primitives" : [
                {
                    "attributes" : {
                        "POSITION" : 0,
                        "NORMAL" : 1,
                        "TEXCOORD_0" : 2
                    },
                    "indices" : 3,
                    "material" : 0
                }
            ]
        }
    ],
    "textures" : [
        {
            "source" : 0
        }
    ],
    "images" : [
        {
            "bufferView" : 4,
            "mimeType" : "image/jpeg",
            "name" : "Denim_dark"
        }
    ],
    "accessors" : [
        {
            "bufferView" : 0,
            "componentType" : 5126,
            "count" : 6306,
            "max" : [
                23.562854766845703,
                12.466379165649414,
                -7.535634994506836
            ],
            "min" : [
                -23.726669311523438,
                -11.616349220275879,
                -117.76949310302734
            ],
            "type" : "VEC3"
        },
        {
            "bufferView" : 1,
            "componentType" : 5126,
            "count" : 6306,
            "type" : "VEC3"
        },
        {
            "bufferView" : 2,
            "componentType" : 5126,
            "count" : 6306,
            "type" : "VEC2"
        },
        {
            "bufferView" : 3,
            "componentType" : 5123,
            "count" : 33288,
            "type" : "SCALAR"
        }
    ],
    "bufferViews" : [
        {
            "buffer" : 0,
            "byteLength" : 75672,
            "byteOffset" : 0
        },
        {
            "buffer" : 0,
            "byteLength" : 75672,
            "byteOffset" : 75672
        },
        {
            "buffer" : 0,
            "byteLength" : 50448,
            "byteOffset" : 151344
        },
        {
            "buffer" : 0,
            "byteLength" : 66576,
            "byteOffset" : 201792
        },
        {
            "buffer" : 0,
            "byteLength" : 296612,
            "byteOffset" : 268368
        }
    ],
    "buffers" : [
        {
            "byteLength" : 564980,
            "uri" : "data:application/octet-stream;base64,"
        }
    ]
}
