{
    "asset" : {
        "generator" : "Khronos glTF Blender I/O v1.0.5",
        "version" : "2.0"
    },
    "scene" : 0,
    "scenes" : [
        {
            "name" : "Scene",
            "nodes" : [
                0
            ]
        }
    ],
    "nodes" : [
        {
            "mesh" : 0,
            "name" : "male_kid_hair",
            "rotation" : [
                0.7071068286895752,
                0,
                0,
                0.7071067094802856
            ]
        }
    ],
    "materials" : [
        {
            "doubleSided" : true,
            "name" : "Material3687",
            "pbrMetallicRoughness" : {
                "baseColorTexture" : {
                    "index" : 0,
                    "texCoord" : 0
                },
                "metallicFactor" : 0,
                "roughnessFactor" : 0.9037057757377625
            }
        }
    ],
    "meshes" : [
        {
            "name" : "male_kid_hair",
            "primitives" : [
                {
                    "attributes" : {
                        "POSITION" : 0,
                        "NORMAL" : 1,
                        "TEXCOORD_0" : 2
                    },
                    "indices" : 3,
                    "material" : 0
                }
            ]
        }
    ],
    "textures" : [
        {
            "source" : 0
        }
    ],
    "images" : [
        {
            "bufferView" : 4,
            "mimeType" : "image/png",
            "name" : "Kid_Slicked_B_03.png-Kid_Slicked_B_03.png"
        }
    ],
    "accessors" : [
        {
            "bufferView" : 0,
            "componentType" : 5126,
            "count" : 8785,
            "max" : [
                9.34150505065918,
                7.804635047912598,
                -120.0288314819336
            ],
            "min" : [
                -8.81902027130127,
                -12.863680839538574,
                -142.2740478515625
            ],
            "type" : "VEC3"
        },
        {
            "bufferView" : 1,
            "componentType" : 5126,
            "count" : 8785,
            "type" : "VEC3"
        },
        {
            "bufferView" : 2,
            "componentType" : 5126,
            "count" : 8785,
            "type" : "VEC2"
        },
        {
            "bufferView" : 3,
            "componentType" : 5123,
            "count" : 38826,
            "type" : "SCALAR"
        }
    ],
    "bufferViews" : [
        {
            "buffer" : 0,
            "byteLength" : 105420,
            "byteOffset" : 0
        },
        {
            "buffer" : 0,
            "byteLength" : 105420,
            "byteOffset" : 105420
        },
        {
            "buffer" : 0,
            "byteLength" : 70280,
            "byteOffset" : 210840
        },
        {
            "buffer" : 0,
            "byteLength" : 77652,
            "byteOffset" : 281120
        },
        {
            "buffer" : 0,
            "byteLength" : 781166,
            "byteOffset" : 358772
        }
    ],
    "buffers" : [
        {
            "byteLength" : 1139940,
            "uri" : "data:application/octet-stream;base64,"
        }
    ]
}
