{
    "asset" : {
        "generator" : "Khronos glTF Blender I/O v1.0.5",
        "version" : "2.0"
    },
    "scene" : 0,
    "scenes" : [
        {
            "name" : "Scene",
            "nodes" : [
                0
            ]
        }
    ],
    "nodes" : [
        {
            "mesh" : 0,
            "name" : "tshirt",
            "rotation" : [
                0.7071068286895752,
                0,
                0,
                0.7071067094802856
            ]
        }
    ],
    "materials" : [
        {
            "doubleSided" : true,
            "name" : "Material4305",
            "pbrMetallicRoughness" : {
                "baseColorTexture" : {
                    "index" : 0,
                    "texCoord" : 0
                },
                "metallicFactor" : 0,
                "roughnessFactor" : 0.925464391708374
            }
        },
        {
            "doubleSided" : true,
            "name" : "Material5470",
            "pbrMetallicRoughness" : {
                "baseColorTexture" : {
                    "index" : 1,
                    "texCoord" : 0
                },
                "metallicFactor" : 0,
                "roughnessFactor" : 0.925464391708374
            }
        }
    ],
    "meshes" : [
        {
            "name" : "tshirt",
            "primitives" : [
                {
                    "attributes" : {
                        "POSITION" : 0,
                        "NORMAL" : 1,
                        "TEXCOORD_0" : 2
                    },
                    "indices" : 3,
                    "material" : 0
                },
                {
                    "attributes" : {
                        "POSITION" : 4,
                        "NORMAL" : 5,
                        "TEXCOORD_0" : 6
                    },
                    "indices" : 7,
                    "material" : 1
                }
            ]
        }
    ],
    "textures" : [
        {
            "source" : 0
        },
        {
            "source" : 1
        }
    ],
    "images" : [
        {
            "bufferView" : 4,
            "mimeType" : "image/jpeg",
            "name" : "Jersey_white"
        },
        {
            "bufferView" : 9,
            "mimeType" : "image/png",
            "name" : "Marvelous Desinger_emblem"
        }
    ],
    "accessors" : [
        {
            "bufferView" : 0,
            "componentType" : 5126,
            "count" : 4794,
            "max" : [
                57.689857482910156,
                16.7767276763916,
                -97.5488510131836
            ],
            "min" : [
                -57.76591110229492,
                -13.914130210876465,
                -164.70343017578125
            ],
            "type" : "VEC3"
        },
        {
            "bufferView" : 1,
            "componentType" : 5126,
            "count" : 4794,
            "type" : "VEC3"
        },
        {
            "bufferView" : 2,
            "componentType" : 5126,
            "count" : 4794,
            "type" : "VEC2"
        },
        {
            "bufferView" : 3,
            "componentType" : 5123,
            "count" : 26832,
            "type" : "SCALAR"
        },
        {
            "bufferView" : 5,
            "componentType" : 5126,
            "count" : 42,
            "max" : [
                18.19996452331543,
                8.191774368286133,
                -101.81183624267578
            ],
            "min" : [
                14.22777271270752,
                3.74190092086792,
                -106.80401611328125
            ],
            "type" : "VEC3"
        },
        {
            "bufferView" : 6,
            "componentType" : 5126,
            "count" : 42,
            "type" : "VEC3"
        },
        {
            "bufferView" : 7,
            "componentType" : 5126,
            "count" : 42,
            "type" : "VEC2"
        },
        {
            "bufferView" : 8,
            "componentType" : 5123,
            "count" : 150,
            "type" : "SCALAR"
        }
    ],
    "bufferViews" : [
        {
            "buffer" : 0,
            "byteLength" : 57528,
            "byteOffset" : 0
        },
        {
            "buffer" : 0,
            "byteLength" : 57528,
            "byteOffset" : 57528
        },
        {
            "buffer" : 0,
            "byteLength" : 38352,
            "byteOffset" : 115056
        },
        {
            "buffer" : 0,
            "byteLength" : 53664,
            "byteOffset" : 153408
        },
        {
            "buffer" : 0,
            "byteLength" : 270105,
            "byteOffset" : 207072
        },
        {
            "buffer" : 0,
            "byteLength" : 504,
            "byteOffset" : 477180
        },
        {
            "buffer" : 0,
            "byteLength" : 504,
            "byteOffset" : 477684
        },
        {
            "buffer" : 0,
            "byteLength" : 336,
            "byteOffset" : 478188
        },
        {
            "buffer" : 0,
            "byteLength" : 300,
            "byteOffset" : 478524
        },
        {
            "buffer" : 0,
            "byteLength" : 9026,
            "byteOffset" : 478824
        }
    ],
    "buffers" : [
        {
            "byteLength" : 487852,
            "uri" : "data:application/octet-stream;base64,"
        }
    ]
}
