{
    "asset" : {
        "generator" : "Khronos glTF Blender I/O v1.0.5",
        "version" : "2.0"
    },
    "scene" : 0,
    "scenes" : [
        {
            "name" : "Scene",
            "nodes" : [
                0
            ]
        }
    ],
    "nodes" : [
        {
            "mesh" : 0,
            "name" : "female_kid_hair",
            "rotation" : [
                0.7071068286895752,
                0,
                0,
                0.7071067094802856
            ]
        }
    ],
    "materials" : [
        {
            "doubleSided" : true,
            "name" : "Material3671",
            "pbrMetallicRoughness" : {
                "baseColorTexture" : {
                    "index" : 0,
                    "texCoord" : 0
                },
                "metallicFactor" : 0,
                "roughnessFactor" : 0.850928783416748
            }
        }
    ],
    "meshes" : [
        {
            "name" : "female_kid_hair",
            "primitives" : [
                {
                    "attributes" : {
                        "POSITION" : 0,
                        "NORMAL" : 1,
                        "TEXCOORD_0" : 2
                    },
                    "indices" : 3,
                    "material" : 0
                }
            ]
        }
    ],
    "textures" : [
        {
            "source" : 0
        }
    ],
    "images" : [
        {
            "bufferView" : 4,
            "mimeType" : "image/png",
            "name" : "Kid_Bun_A_02.png-Kid_Bun_A_02.png"
        }
    ],
    "accessors" : [
        {
            "bufferView" : 0,
            "componentType" : 5126,
            "count" : 6794,
            "max" : [
                8.469600677490234,
                9.732569694519043,
                -119.54141998291016
            ],
            "min" : [
                -8.474745750427246,
                -16.696523666381836,
                -141.7668914794922
            ],
            "type" : "VEC3"
        },
        {
            "bufferView" : 1,
            "componentType" : 5126,
            "count" : 6794,
            "type" : "VEC3"
        },
        {
            "bufferView" : 2,
            "componentType" : 5126,
            "count" : 6794,
            "type" : "VEC2"
        },
        {
            "bufferView" : 3,
            "componentType" : 5123,
            "count" : 22797,
            "type" : "SCALAR"
        }
    ],
    "bufferViews" : [
        {
            "buffer" : 0,
            "byteLength" : 81528,
            "byteOffset" : 0
        },
        {
            "buffer" : 0,
            "byteLength" : 81528,
            "byteOffset" : 81528
        },
        {
            "buffer" : 0,
            "byteLength" : 54352,
            "byteOffset" : 163056
        },
        {
            "buffer" : 0,
            "byteLength" : 45594,
            "byteOffset" : 217408
        },
        {
            "buffer" : 0,
            "byteLength" : 309996,
            "byteOffset" : 263004
        }
    ],
    "buffers" : [
        {
            "byteLength" : 573000,
            "uri" : "data:application/octet-stream;base64,"
        }
    ]
}
