{
    "asset" : {
        "generator" : "Khronos glTF Blender I/O v1.0.5",
        "version" : "2.0"
    },
    "scene" : 0,
    "scenes" : [
        {
            "name" : "Scene",
            "nodes" : [
                0
            ]
        }
    ],
    "nodes" : [
        {
            "mesh" : 0,
            "name" : "man_hair_black",
            "rotation" : [
                0.7071068286895752,
                0,
                0,
                0.7071067094802856
            ]
        }
    ],
    "materials" : [
        {
            "doubleSided" : true,
            "name" : "Material.002",
            "pbrMetallicRoughness" : {
                "baseColorTexture" : {
                    "index" : 0,
                    "texCoord" : 0
                },
                "metallicFactor" : 0,
                "roughnessFactor" : 0.5
            }
        }
    ],
    "meshes" : [
        {
            "name" : "hair.002",
            "primitives" : [
                {
                    "attributes" : {
                        "POSITION" : 0,
                        "NORMAL" : 1,
                        "TEXCOORD_0" : 2
                    },
                    "indices" : 3,
                    "material" : 0
                }
            ]
        }
    ],
    "textures" : [
        {
            "source" : 0
        }
    ],
    "images" : [
        {
            "bufferView" : 4,
            "mimeType" : "image/png",
            "name" : "M_hair"
        }
    ],
    "accessors" : [
        {
            "bufferView" : 0,
            "componentType" : 5126,
            "count" : 15098,
            "max" : [
                9.198790550231934,
                14.220169067382812,
                -171.8076934814453
            ],
            "min" : [
                -9.060729026794434,
                -8.257660865783691,
                -194.48387145996094
            ],
            "type" : "VEC3"
        },
        {
            "bufferView" : 1,
            "componentType" : 5126,
            "count" : 15098,
            "type" : "VEC3"
        },
        {
            "bufferView" : 2,
            "componentType" : 5126,
            "count" : 15098,
            "type" : "VEC2"
        },
        {
            "bufferView" : 3,
            "componentType" : 5123,
            "count" : 45552,
            "type" : "SCALAR"
        }
    ],
    "bufferViews" : [
        {
            "buffer" : 0,
            "byteLength" : 181176,
            "byteOffset" : 0
        },
        {
            "buffer" : 0,
            "byteLength" : 181176,
            "byteOffset" : 181176
        },
        {
            "buffer" : 0,
            "byteLength" : 120784,
            "byteOffset" : 362352
        },
        {
            "buffer" : 0,
            "byteLength" : 91104,
            "byteOffset" : 483136
        },
        {
            "buffer" : 0,
            "byteLength" : 83353,
            "byteOffset" : 574240
        }
    ],
    "buffers" : [
        {
            "byteLength" : 657596,
            "uri" : "data:application/octet-stream;base64,"
        }
    ]
}
