{
    "asset" : {
        "generator" : "Khronos glTF Blender I/O v1.0.5",
        "version" : "2.0"
    },
    "scene" : 0,
    "scenes" : [
        {
            "name" : "Scene",
            "nodes" : [
                0
            ]
        }
    ],
    "nodes" : [
        {
            "mesh" : 0,
            "name" : "trouser",
            "rotation" : [
                0.7071068286895752,
                0,
                0,
                0.7071067094802856
            ]
        }
    ],
    "materials" : [
        {
            "doubleSided" : true,
            "name" : "Material4801",
            "pbrMetallicRoughness" : {
                "baseColorTexture" : {
                    "index" : 0,
                    "texCoord" : 0
                },
                "metallicFactor" : 0,
                "roughnessFactor" : 0.925464391708374
            }
        },
        {
            "doubleSided" : true,
            "name" : "Material4795",
            "pbrMetallicRoughness" : {
                "baseColorTexture" : {
                    "index" : 1,
                    "texCoord" : 0
                },
                "metallicFactor" : 0,
                "roughnessFactor" : 0.925464391708374
            }
        },
        {
            "doubleSided" : true,
            "name" : "Material4811",
            "pbrMetallicRoughness" : {
                "baseColorTexture" : {
                    "index" : 2,
                    "texCoord" : 0
                },
                "metallicFactor" : 0,
                "roughnessFactor" : 0.925464391708374
            }
        },
        {
            "doubleSided" : true,
            "name" : "Material4806",
            "pbrMetallicRoughness" : {
                "baseColorTexture" : {
                    "index" : 3,
                    "texCoord" : 0
                },
                "metallicFactor" : 0,
                "roughnessFactor" : 0.925464391708374
            }
        }
    ],
    "meshes" : [
        {
            "name" : "trouser",
            "primitives" : [
                {
                    "attributes" : {
                        "POSITION" : 0,
                        "NORMAL" : 1,
                        "TEXCOORD_0" : 2
                    },
                    "indices" : 3,
                    "material" : 0
                },
                {
                    "attributes" : {
                        "POSITION" : 4,
                        "NORMAL" : 5,
                        "TEXCOORD_0" : 6
                    },
                    "indices" : 7,
                    "material" : 1
                },
                {
                    "attributes" : {
                        "POSITION" : 8,
                        "NORMAL" : 9,
                        "TEXCOORD_0" : 10
                    },
                    "indices" : 11,
                    "material" : 2
                },
                {
                    "attributes" : {
                        "POSITION" : 12,
                        "NORMAL" : 13,
                        "TEXCOORD_0" : 14
                    },
                    "indices" : 15,
                    "material" : 3
                }
            ]
        }
    ],
    "textures" : [
        {
            "source" : 0
        },
        {
            "source" : 0
        },
        {
            "source" : 0
        },
        {
            "source" : 0
        }
    ],
    "images" : [
        {
            "bufferView" : 4,
            "mimeType" : "image/jpeg",
            "name" : "Denim_dark"
        }
    ],
    "accessors" : [
        {
            "bufferView" : 0,
            "componentType" : 5126,
            "count" : 4666,
            "max" : [
                23.58735466003418,
                12.45811653137207,
                -7.593729019165039
            ],
            "min" : [
                -23.670764923095703,
                -11.613978385925293,
                -113.81756591796875
            ],
            "type" : "VEC3"
        },
        {
            "bufferView" : 1,
            "componentType" : 5126,
            "count" : 4666,
            "type" : "VEC3"
        },
        {
            "bufferView" : 2,
            "componentType" : 5126,
            "count" : 4666,
            "type" : "VEC2"
        },
        {
            "bufferView" : 3,
            "componentType" : 5123,
            "count" : 26109,
            "type" : "SCALAR"
        },
        {
            "bufferView" : 5,
            "componentType" : 5126,
            "count" : 230,
            "max" : [
                4.347332954406738,
                12.45811653137207,
                -97.31868743896484
            ],
            "min" : [
                -0.0905039981007576,
                10.039767265319824,
                -111.08611297607422
            ],
            "type" : "VEC3"
        },
        {
            "bufferView" : 6,
            "componentType" : 5126,
            "count" : 230,
            "type" : "VEC3"
        },
        {
            "bufferView" : 7,
            "componentType" : 5126,
            "count" : 230,
            "type" : "VEC2"
        },
        {
            "bufferView" : 8,
            "componentType" : 5123,
            "count" : 1134,
            "type" : "SCALAR"
        },
        {
            "bufferView" : 9,
            "componentType" : 5126,
            "count" : 559,
            "max" : [
                18.47027015686035,
                11.186280250549316,
                -90.93872833251953
            ],
            "min" : [
                -18.41688346862793,
                -10.270941734313965,
                -113.1131820678711
            ],
            "type" : "VEC3"
        },
        {
            "bufferView" : 10,
            "componentType" : 5126,
            "count" : 559,
            "type" : "VEC3"
        },
        {
            "bufferView" : 11,
            "componentType" : 5126,
            "count" : 559,
            "type" : "VEC2"
        },
        {
            "bufferView" : 12,
            "componentType" : 5123,
            "count" : 2532,
            "type" : "SCALAR"
        },
        {
            "bufferView" : 13,
            "componentType" : 5126,
            "count" : 681,
            "max" : [
                15.333142280578613,
                12.303437232971191,
                -110.93303680419922
            ],
            "min" : [
                -15.252299308776855,
                -8.257708549499512,
                -117.77571105957031
            ],
            "type" : "VEC3"
        },
        {
            "bufferView" : 14,
            "componentType" : 5126,
            "count" : 681,
            "type" : "VEC3"
        },
        {
            "bufferView" : 15,
            "componentType" : 5126,
            "count" : 681,
            "type" : "VEC2"
        },
        {
            "bufferView" : 16,
            "componentType" : 5123,
            "count" : 3513,
            "type" : "SCALAR"
        }
    ],
    "bufferViews" : [
        {
            "buffer" : 0,
            "byteLength" : 55992,
            "byteOffset" : 0
        },
        {
            "buffer" : 0,
            "byteLength" : 55992,
            "byteOffset" : 55992
        },
        {
            "buffer" : 0,
            "byteLength" : 37328,
            "byteOffset" : 111984
        },
        {
            "buffer" : 0,
            "byteLength" : 52218,
            "byteOffset" : 149312
        },
        {
            "buffer" : 0,
            "byteLength" : 1451936,
            "byteOffset" : 201532
        },
        {
            "buffer" : 0,
            "byteLength" : 2760,
            "byteOffset" : 1653468
        },
        {
            "buffer" : 0,
            "byteLength" : 2760,
            "byteOffset" : 1656228
        },
        {
            "buffer" : 0,
            "byteLength" : 1840,
            "byteOffset" : 1658988
        },
        {
            "buffer" : 0,
            "byteLength" : 2268,
            "byteOffset" : 1660828
        },
        {
            "buffer" : 0,
            "byteLength" : 6708,
            "byteOffset" : 1663096
        },
        {
            "buffer" : 0,
            "byteLength" : 6708,
            "byteOffset" : 1669804
        },
        {
            "buffer" : 0,
            "byteLength" : 4472,
            "byteOffset" : 1676512
        },
        {
            "buffer" : 0,
            "byteLength" : 5064,
            "byteOffset" : 1680984
        },
        {
            "buffer" : 0,
            "byteLength" : 8172,
            "byteOffset" : 1686048
        },
        {
            "buffer" : 0,
            "byteLength" : 8172,
            "byteOffset" : 1694220
        },
        {
            "buffer" : 0,
            "byteLength" : 5448,
            "byteOffset" : 1702392
        },
        {
            "buffer" : 0,
            "byteLength" : 7026,
            "byteOffset" : 1707840
        }
    ],
    "buffers" : [
        {
            "byteLength" : 1714868,
            "uri" : "data:application/octet-stream;base64,"
        }
    ]
}
