{
    "asset" : {
        "generator" : "Khronos glTF Blender I/O v1.0.5",
        "version" : "2.0"
    },
    "scene" : 0,
    "scenes" : [
        {
            "name" : "Scene",
            "nodes" : [
                0
            ]
        }
    ],
    "nodes" : [
        {
            "mesh" : 0,
            "name" : "male_kid_eyes",
            "rotation" : [
                0.7071068286895752,
                0,
                0,
                0.7071067094802856
            ]
        }
    ],
    "materials" : [
        {
            "doubleSided" : true,
            "name" : "Material3840",
            "pbrMetallicRoughness" : {
                "baseColorTexture" : {
                    "index" : 0,
                    "texCoord" : 0
                },
                "metallicFactor" : 0,
                "roughnessFactor" : 0.6228764057159424
            }
        }
    ],
    "meshes" : [
        {
            "name" : "male_kid_eyes",
            "primitives" : [
                {
                    "attributes" : {
                        "POSITION" : 0,
                        "NORMAL" : 1,
                        "TEXCOORD_0" : 2
                    },
                    "indices" : 3,
                    "material" : 0
                }
            ]
        }
    ],
    "textures" : [
        {
            "source" : 0
        }
    ],
    "images" : [
        {
            "bufferView" : 4,
            "mimeType" : "image/jpeg",
            "name" : "eye_3"
        }
    ],
    "accessors" : [
        {
            "bufferView" : 0,
            "componentType" : 5126,
            "count" : 28452,
            "max" : [
                5.065998077392578,
                5.791072845458984,
                -127.3760986328125
            ],
            "min" : [
                -5.0660858154296875,
                1.0183210372924805,
                -131.4261932373047
            ],
            "type" : "VEC3"
        },
        {
            "bufferView" : 1,
            "componentType" : 5126,
            "count" : 28452,
            "type" : "VEC3"
        },
        {
            "bufferView" : 2,
            "componentType" : 5126,
            "count" : 28452,
            "type" : "VEC2"
        },
        {
            "bufferView" : 3,
            "componentType" : 5123,
            "count" : 28452,
            "type" : "SCALAR"
        }
    ],
    "bufferViews" : [
        {
            "buffer" : 0,
            "byteLength" : 341424,
            "byteOffset" : 0
        },
        {
            "buffer" : 0,
            "byteLength" : 341424,
            "byteOffset" : 341424
        },
        {
            "buffer" : 0,
            "byteLength" : 227616,
            "byteOffset" : 682848
        },
        {
            "buffer" : 0,
            "byteLength" : 56904,
            "byteOffset" : 910464
        },
        {
            "buffer" : 0,
            "byteLength" : 600418,
            "byteOffset" : 967368
        }
    ],
    "buffers" : [
        {
            "byteLength" : 1567788,
            "uri" : "data:application/octet-stream;base64,"
        }
    ]
}
