{
    "asset" : {
        "generator" : "Khronos glTF Blender I/O v1.0.5",
        "version" : "2.0"
    },
    "scene" : 0,
    "scenes" : [
        {
            "name" : "Scene",
            "nodes" : [
                0
            ]
        }
    ],
    "nodes" : [
        {
            "mesh" : 0,
            "name" : "body",
            "rotation" : [
                0.7071068286895752,
                0,
                0,
                0.7071067094802856
            ]
        }
    ],
    "materials" : [
        {
            "doubleSided" : true,
            "name" : "Material4332.002",
            "pbrMetallicRoughness" : {
                "baseColorTexture" : {
                    "index" : 0,
                    "texCoord" : 0
                },
                "metallicFactor" : 0,
                "roughnessFactor" : 0.8945907354354858
            }
        },
        {
            "doubleSided" : true,
            "name" : "Material4337.002",
            "pbrMetallicRoughness" : {
                "baseColorTexture" : {
                    "index" : 1,
                    "texCoord" : 0
                },
                "metallicFactor" : 0,
                "roughnessFactor" : 0.8945907354354858
            }
        },
        {
            "doubleSided" : true,
            "name" : "Material4342.002",
            "pbrMetallicRoughness" : {
                "baseColorTexture" : {
                    "index" : 2,
                    "texCoord" : 0
                },
                "metallicFactor" : 0,
                "roughnessFactor" : 0.8945907354354858
            }
        }
    ],
    "meshes" : [
        {
            "name" : "body.001",
            "primitives" : [
                {
                    "attributes" : {
                        "POSITION" : 0,
                        "NORMAL" : 1,
                        "TEXCOORD_0" : 2
                    },
                    "indices" : 3,
                    "material" : 0
                },
                {
                    "attributes" : {
                        "POSITION" : 4,
                        "NORMAL" : 5,
                        "TEXCOORD_0" : 6
                    },
                    "indices" : 7,
                    "material" : 1
                },
                {
                    "attributes" : {
                        "POSITION" : 8,
                        "NORMAL" : 9,
                        "TEXCOORD_0" : 10
                    },
                    "indices" : 11,
                    "material" : 2
                }
            ]
        }
    ],
    "textures" : [
        {
            "source" : 0
        },
        {
            "source" : 1
        },
        {
            "source" : 2
        }
    ],
    "images" : [
        {
            "bufferView" : 4,
            "mimeType" : "image/jpeg",
            "name" : "M_leg_hand_west"
        },
        {
            "bufferView" : 9,
            "mimeType" : "image/jpeg",
            "name" : "M_body_west_underwear"
        },
        {
            "bufferView" : 14,
            "mimeType" : "image/jpeg",
            "name" : "M_face_west"
        }
    ],
    "accessors" : [
        {
            "bufferView" : 0,
            "componentType" : 5126,
            "count" : 10716,
            "max" : [
                67.8858642578125,
                19.457460403442383,
                -0.5928220152854919
            ],
            "min" : [
                -67.88655853271484,
                -11.776259422302246,
                -160.86582946777344
            ],
            "type" : "VEC3"
        },
        {
            "bufferView" : 1,
            "componentType" : 5126,
            "count" : 10716,
            "type" : "VEC3"
        },
        {
            "bufferView" : 2,
            "componentType" : 5126,
            "count" : 10716,
            "type" : "VEC2"
        },
        {
            "bufferView" : 3,
            "componentType" : 5123,
            "count" : 59280,
            "type" : "SCALAR"
        },
        {
            "bufferView" : 5,
            "componentType" : 5126,
            "count" : 3962,
            "max" : [
                19.04467010498047,
                12.359766006469727,
                -85.21487426757812
            ],
            "min" : [
                -19.044971466064453,
                -12.167071342468262,
                -171.59637451171875
            ],
            "type" : "VEC3"
        },
        {
            "bufferView" : 6,
            "componentType" : 5126,
            "count" : 3962,
            "type" : "VEC3"
        },
        {
            "bufferView" : 7,
            "componentType" : 5126,
            "count" : 3962,
            "type" : "VEC2"
        },
        {
            "bufferView" : 8,
            "componentType" : 5123,
            "count" : 22560,
            "type" : "SCALAR"
        },
        {
            "bufferView" : 10,
            "componentType" : 5126,
            "count" : 5874,
            "max" : [
                9.391977310180664,
                16.26946258544922,
                -161.5726776123047
            ],
            "min" : [
                -9.391627311706543,
                -6.4563469886779785,
                -192.77850341796875
            ],
            "type" : "VEC3"
        },
        {
            "bufferView" : 11,
            "componentType" : 5126,
            "count" : 5874,
            "type" : "VEC3"
        },
        {
            "bufferView" : 12,
            "componentType" : 5126,
            "count" : 5874,
            "type" : "VEC2"
        },
        {
            "bufferView" : 13,
            "componentType" : 5123,
            "count" : 33852,
            "type" : "SCALAR"
        }
    ],
    "bufferViews" : [
        {
            "buffer" : 0,
            "byteLength" : 128592,
            "byteOffset" : 0
        },
        {
            "buffer" : 0,
            "byteLength" : 128592,
            "byteOffset" : 128592
        },
        {
            "buffer" : 0,
            "byteLength" : 85728,
            "byteOffset" : 257184
        },
        {
            "buffer" : 0,
            "byteLength" : 118560,
            "byteOffset" : 342912
        },
        {
            "buffer" : 0,
            "byteLength" : 219215,
            "byteOffset" : 461472
        },
        {
            "buffer" : 0,
            "byteLength" : 47544,
            "byteOffset" : 680688
        },
        {
            "buffer" : 0,
            "byteLength" : 47544,
            "byteOffset" : 728232
        },
        {
            "buffer" : 0,
            "byteLength" : 31696,
            "byteOffset" : 775776
        },
        {
            "buffer" : 0,
            "byteLength" : 45120,
            "byteOffset" : 807472
        },
        {
            "buffer" : 0,
            "byteLength" : 569139,
            "byteOffset" : 852592
        },
        {
            "buffer" : 0,
            "byteLength" : 70488,
            "byteOffset" : 1421732
        },
        {
            "buffer" : 0,
            "byteLength" : 70488,
            "byteOffset" : 1492220
        },
        {
            "buffer" : 0,
            "byteLength" : 46992,
            "byteOffset" : 1562708
        },
        {
            "buffer" : 0,
            "byteLength" : 67704,
            "byteOffset" : 1609700
        },
        {
            "buffer" : 0,
            "byteLength" : 373383,
            "byteOffset" : 1677404
        }
    ],
    "buffers" : [
        {
            "byteLength" : 2050788,
            "uri" : "data:application/octet-stream;base64,"
        }
    ]
}
