{
    "asset" : {
        "generator" : "Khronos glTF Blender I/O v1.0.5",
        "version" : "2.0"
    },
    "scene" : 0,
    "scenes" : [
        {
            "name" : "Scene",
            "nodes" : [
                0
            ]
        }
    ],
    "nodes" : [
        {
            "mesh" : 0,
            "name" : "eays",
            "rotation" : [
                0.7071068286895752,
                0,
                0,
                0.7071067094802856
            ]
        }
    ],
    "materials" : [
        {
            "doubleSided" : true,
            "name" : "Material4200.003",
            "pbrMetallicRoughness" : {
                "baseColorFactor" : [
                    0.03726299852132797,
                    0.03230300173163414,
                    0.024841999635100365,
                    1
                ],
                "metallicFactor" : 0,
                "roughnessFactor" : 0.925464391708374
            }
        },
        {
            "doubleSided" : true,
            "name" : "Material4214.002",
            "pbrMetallicRoughness" : {
                "baseColorTexture" : {
                    "index" : 0,
                    "texCoord" : 0
                },
                "metallicFactor" : 0,
                "roughnessFactor" : 0.6666666865348816
            }
        },
        {
            "doubleSided" : true,
            "name" : "Material4228.003",
            "pbrMetallicRoughness" : {
                "baseColorTexture" : {
                    "index" : 1,
                    "texCoord" : 0
                },
                "metallicFactor" : 0,
                "roughnessFactor" : 0.6666666865348816
            }
        }
    ],
    "meshes" : [
        {
            "name" : "eays.003",
            "primitives" : [
                {
                    "attributes" : {
                        "POSITION" : 0,
                        "NORMAL" : 1,
                        "TEXCOORD_0" : 2
                    },
                    "indices" : 3,
                    "material" : 0
                },
                {
                    "attributes" : {
                        "POSITION" : 4,
                        "NORMAL" : 5,
                        "TEXCOORD_0" : 6
                    },
                    "indices" : 7,
                    "material" : 1
                },
                {
                    "attributes" : {
                        "POSITION" : 8,
                        "NORMAL" : 9,
                        "TEXCOORD_0" : 10
                    },
                    "indices" : 11,
                    "material" : 2
                }
            ]
        }
    ],
    "textures" : [
        {
            "source" : 0
        },
        {
            "source" : 0
        }
    ],
    "images" : [
        {
            "bufferView" : 8,
            "mimeType" : "image/jpeg",
            "name" : "eye_1"
        }
    ],
    "accessors" : [
        {
            "bufferView" : 0,
            "componentType" : 5126,
            "count" : 6186,
            "max" : [
                4.380104064941406,
                13.129183769226074,
                -180.07217407226562
            ],
            "min" : [
                -4.380101203918457,
                12.030928611755371,
                -181.3206329345703
            ],
            "type" : "VEC3"
        },
        {
            "bufferView" : 1,
            "componentType" : 5126,
            "count" : 6186,
            "type" : "VEC3"
        },
        {
            "bufferView" : 2,
            "componentType" : 5126,
            "count" : 6186,
            "type" : "VEC2"
        },
        {
            "bufferView" : 3,
            "componentType" : 5123,
            "count" : 30192,
            "type" : "SCALAR"
        },
        {
            "bufferView" : 4,
            "componentType" : 5126,
            "count" : 683,
            "max" : [
                5.037292003631592,
                12.694904327392578,
                -178.93359375
            ],
            "min" : [
                0.8498839735984802,
                8.378501892089844,
                -183.1185760498047
            ],
            "type" : "VEC3"
        },
        {
            "bufferView" : 5,
            "componentType" : 5126,
            "count" : 683,
            "type" : "VEC3"
        },
        {
            "bufferView" : 6,
            "componentType" : 5126,
            "count" : 683,
            "type" : "VEC2"
        },
        {
            "bufferView" : 7,
            "componentType" : 5123,
            "count" : 3900,
            "type" : "SCALAR"
        },
        {
            "bufferView" : 9,
            "componentType" : 5126,
            "count" : 683,
            "max" : [
                -0.8499360084533691,
                12.69508171081543,
                -178.9342498779297
            ],
            "min" : [
                -5.0373640060424805,
                8.378711700439453,
                -183.11923217773438
            ],
            "type" : "VEC3"
        },
        {
            "bufferView" : 10,
            "componentType" : 5126,
            "count" : 683,
            "type" : "VEC3"
        },
        {
            "bufferView" : 11,
            "componentType" : 5126,
            "count" : 683,
            "type" : "VEC2"
        },
        {
            "bufferView" : 12,
            "componentType" : 5123,
            "count" : 3900,
            "type" : "SCALAR"
        }
    ],
    "bufferViews" : [
        {
            "buffer" : 0,
            "byteLength" : 74232,
            "byteOffset" : 0
        },
        {
            "buffer" : 0,
            "byteLength" : 74232,
            "byteOffset" : 74232
        },
        {
            "buffer" : 0,
            "byteLength" : 49488,
            "byteOffset" : 148464
        },
        {
            "buffer" : 0,
            "byteLength" : 60384,
            "byteOffset" : 197952
        },
        {
            "buffer" : 0,
            "byteLength" : 8196,
            "byteOffset" : 258336
        },
        {
            "buffer" : 0,
            "byteLength" : 8196,
            "byteOffset" : 266532
        },
        {
            "buffer" : 0,
            "byteLength" : 5464,
            "byteOffset" : 274728
        },
        {
            "buffer" : 0,
            "byteLength" : 7800,
            "byteOffset" : 280192
        },
        {
            "buffer" : 0,
            "byteLength" : 114134,
            "byteOffset" : 287992
        },
        {
            "buffer" : 0,
            "byteLength" : 8196,
            "byteOffset" : 402128
        },
        {
            "buffer" : 0,
            "byteLength" : 8196,
            "byteOffset" : 410324
        },
        {
            "buffer" : 0,
            "byteLength" : 5464,
            "byteOffset" : 418520
        },
        {
            "buffer" : 0,
            "byteLength" : 7800,
            "byteOffset" : 423984
        }
    ],
    "buffers" : [
        {
            "byteLength" : 431784,
            "uri" : "data:application/octet-stream;base64,"
        }
    ]
}
